<svg width="80" height="80" viewBox="0 0 80 80" fill="none" xmlns="http://www.w3.org/2000/svg">
<g clip-path="url(#clip0_2992_4904)">
<rect width="80" height="80" rx="40" fill="#317C6F"/>
<rect x="47.25" y="38.8608" width="4.27003" height="13.06" fill="#D9D9D9"/>
<rect x="47.25" y="22.1533" width="4.27003" height="29.7674" fill="white"/>
<rect x="38.6953" y="34.8206" width="4.27003" height="17.1001" fill="white"/>
<rect x="30.1562" y="43.3704" width="4.27003" height="8.5504" fill="white"/>
<path d="M33.2236 22.1533V25.5312H30.71C26.7667 25.5315 23.5703 28.5561 23.5703 32.2871V49.8662C23.5703 53.5972 26.7667 56.6219 30.71 56.6221H49.29C53.2333 56.6219 56.4297 53.5972 56.4297 49.8662V32.2871C56.4297 32.185 56.4266 32.0834 56.4219 31.9824H59.9922C59.9953 32.0837 60 32.1852 60 32.2871V49.8662C60 55.4628 55.205 59.9998 49.29 60H30.71C24.795 59.9998 20 55.4628 20 49.8662V32.2871C20 26.6905 24.795 22.1535 30.71 22.1533H33.2236Z" fill="white"/>
<path d="M39.4531 23.9346L33.2155 27.342L33.2155 20.5271L39.4531 23.9346Z" fill="white"/>
</g>
<defs>
<clipPath id="clip0_2992_4904">
<rect width="80" height="80" fill="white"/>
</clipPath>
</defs>
</svg>
